<svg xmlns="http://www.w3.org/2000/svg" viewBox="0 0 24 24">
  <path d="M6.763 10.036c0 .296.032.535.088.71.064.176.144.368.256.576.04.063.056.127.056.183 0 .08-.048.16-.152.24l-.503.335a.383.383 0 0 1-.208.072c-.08 0-.16-.04-.239-.112a2.47 2.47 0 0 1-.287-.375 6.18 6.18 0 0 1-.248-.471c-.622.734-1.405 1.101-2.347 1.101-.67 0-1.205-.191-1.596-.574-.391-.384-.59-.894-.59-1.533 0-.678.216-1.23.64-1.654.43-.43 1.004-.645 1.733-.645.24 0 .488.021.744.064.256.04.52.104.792.176v-.503c0-.517-.104-.9-.312-1.14-.216-.248-.552-.367-1.015-.367-.217 0-.44.024-.665.072-.224.048-.448.111-.67.191a1.78 1.78 0 0 1-.191.072.377.377 0 0 1-.104.016c-.088 0-.136-.056-.136-.168V6.93c0-.088.016-.16.048-.224a.49.49 0 0 1 .184-.143c.232-.112.512-.2.839-.263a4.6 4.6 0 0 1 1.046-.096c.797 0 1.386.18 1.77.543.376.363.566.934.566 1.71v2.259m-3.24 1.214c.263 0 .534-.048.816-.144.288-.096.542-.271.76-.519.128-.152.224-.32.272-.512.047-.191.08-.423.08-.694v-.335a5.655 5.655 0 0 0-.635-.144 5.96 5.96 0 0 0-.648-.048c-.46 0-.8.096-1.02.288-.224.191-.336.463-.336.815 0 .334.088.583.264.75.176.16.408.24.696.24m6.41.862c-.112 0-.192-.024-.24-.064-.047-.047-.088-.143-.12-.287L7.793 6.258c-.032-.143-.048-.239-.048-.287 0-.088.044-.135.128-.135h.855c.128 0 .216.024.256.08.048.048.08.144.112.288l1.423 5.701 1.319-5.701c.032-.144.064-.24.104-.288.048-.047.136-.08.264-.08h.695c.128 0 .216.024.256.08.048.048.08.144.112.288l1.335 5.773 1.471-5.773c.032-.144.072-.24.112-.288.048-.047.128-.08.256-.08h.814c.088 0 .136.047.136.135 0 .032-.008.08-.016.144-.016.063-.024.111-.032.135l-1.879 5.503c-.032.144-.072.24-.12.287-.048.047-.136.071-.24.071h-.743c-.128 0-.216-.024-.264-.072-.047-.047-.08-.143-.104-.287l-1.31-5.478-1.295 5.47c-.032.144-.064.24-.112.287-.048.048-.136.072-.264.072h-.743m10.258.438c-.287 0-.575-.032-.855-.096a3.77 3.77 0 0 1-.743-.24c-.104-.047-.176-.096-.208-.143a.357.357 0 0 1-.048-.176v-.319c0-.112.048-.168.144-.168a.51.51 0 0 1 .112.016c.04.008.104.032.184.064.24.112.503.2.79.264.288.063.567.095.846.095.448 0 .798-.08 1.038-.239.24-.16.36-.391.36-.695 0-.199-.064-.367-.184-.503-.128-.135-.368-.255-.72-.367l-1.038-.328c-.519-.16-.911-.399-1.158-.71-.248-.312-.367-.671-.367-1.075 0-.312.072-.591.216-.83.144-.24.336-.447.584-.615.24-.168.511-.296.822-.384.304-.087.624-.136.967-.136.168 0 .352.008.528.032.184.024.36.056.528.096.16.048.312.096.464.144.144.048.256.096.336.144a.69.69 0 0 1 .216.168.297.297 0 0 1 .048.176v.295c0 .112-.048.168-.144.168-.048 0-.136-.024-.256-.072a3.52 3.52 0 0 0-1.486-.311c-.408 0-.735.071-.967.223-.24.144-.36.359-.36.655 0 .208.072.384.216.527.144.144.4.279.774.4l1.015.319c.511.16.878.384 1.11.672.224.288.336.631.336 1.03 0 .327-.072.615-.216.87-.152.256-.352.471-.616.639-.256.176-.552.296-.886.384-.334.087-.686.127-1.054.127"/>
</svg>
